<?xml version="1.0" standalone="no"?>
<!DOCTYPE svg PUBLIC "-//W3C//DTD SVG 20010904//EN"
 "http://www.w3.org/TR/2001/REC-SVG-20010904/DTD/svg10.dtd">
<svg version="1.0" xmlns="http://www.w3.org/2000/svg"
 width="260.000000pt" height="260.000000pt" viewBox="0 0 260.000000 260.000000"
 preserveAspectRatio="xMidYMid meet">
<metadata>
Created by potrace 1.11, written by Peter Selinger 2001-2013
</metadata>
<g transform="translate(0.000000,260.000000) scale(0.100000,-0.100000)"
fill="#000000" stroke="none">
<path d="M1803 1565 c-118 -33 -204 -103 -251 -203 -24 -50 -27 -69 -27 -162
0 -92 3 -112 26 -161 53 -112 136 -180 325 -263 142 -63 218 -109 232 -141 7
-14 12 -46 12 -71 0 -87 -89 -141 -216 -131 -92 7 -155 44 -224 134 l-25 31
-113 -65 -112 -65 17 -31 c10 -17 44 -59 77 -94 106 -115 261 -170 451 -160
211 11 346 96 405 254 18 49 21 74 18 154 -3 83 -8 104 -36 162 -47 94 -117
155 -261 224 -290 138 -293 140 -305 207 -15 77 48 146 132 146 61 0 104 -21
147 -73 l37 -45 104 67 c57 36 103 71 104 76 0 18 -75 109 -117 141 -68 52
-145 76 -253 80 -64 3 -112 -1 -147 -11z"/>
<path d="M1000 1048 c0 -574 1 -565 -70 -600 -93 -47 -183 -6 -250 111 -6 11
-32 -1 -119 -53 -61 -37 -111 -71 -111 -75 0 -18 61 -100 104 -139 179 -165
528 -143 654 40 68 99 67 86 70 686 l3 542 -141 0 -140 0 0 -512z"/>
</g>
</svg>
